<?xml version="1.0" standalone="no"?>
<!DOCTYPE svg PUBLIC "-//W3C//DTD SVG 20010904//EN"
 "http://www.w3.org/TR/2001/REC-SVG-20010904/DTD/svg10.dtd">
<svg version="1.0" xmlns="http://www.w3.org/2000/svg"
 width="400.000000pt" height="400.000000pt" viewBox="0 0 400.000000 400.000000"
 preserveAspectRatio="xMidYMid meet">
<metadata>
Created by potrace 1.11, written by Peter Selinger 2001-2013
</metadata>
<g transform="translate(0.000000,400.000000) scale(0.100000,-0.100000)"
fill="#000000" stroke="none">
<path d="M1960 3830 l0 -140 -45 -43 c-32 -31 -45 -52 -46 -73 -3 -79 13 -118
60 -149 l31 -20 0 -1192 0 -1193 40 0 40 0 0 1193 0 1192 29 17 c89 50 92 189
4 240 l-33 20 0 144 0 144 -40 0 -40 0 0 -140z"/>
<path d="M1813 3297 l-43 -21 0 -1128 0 -1128 45 0 45 0 1 1128 c0 620 2 1135
4 1144 5 27 -6 28 -52 5z"/>
<path d="M2150 2170 c0 -1143 0 -1150 20 -1150 20 0 20 7 20 1144 0 1034 -2
1144 -16 1150 -9 3 -18 6 -20 6 -2 0 -4 -517 -4 -1150z"/>
<path d="M1648 3202 l-37 -27 -1 -1077 0 -1078 45 0 45 0 0 1105 c0 608 -3
1105 -7 1105 -5 -1 -25 -13 -45 -28z"/>
<path d="M2300 2125 l0 -1105 50 0 50 0 0 1075 0 1075 -42 30 c-22 17 -45 30
-50 30 -4 0 -8 -497 -8 -1105z"/>
<path d="M1500 3084 l-50 -47 0 -1008 0 -1009 55 0 55 0 0 1055 c0 580 -2
1055 -5 1055 -3 0 -28 -21 -55 -46z"/>
<path d="M2460 2065 l0 -1045 55 0 55 0 0 1003 0 1004 -49 41 c-27 23 -52 42
-55 42 -3 0 -6 -470 -6 -1045z"/>
<path d="M1352 2928 c-27 -35 -68 -92 -91 -127 l-41 -64 0 -859 0 -858 95 0
95 0 2 981 c2 539 0 983 -4 985 -3 2 -29 -24 -56 -58z"/>
<path d="M2620 1985 l0 -965 65 0 65 0 0 888 0 889 -57 76 c-31 42 -60 77 -65
77 -4 0 -8 -434 -8 -965z"/>
<path d="M2780 1870 l0 -850 89 0 c73 0 93 3 112 19 l24 19 0 464 c-1 562 -14
701 -90 924 -33 97 -115 274 -127 274 -4 0 -8 -382 -8 -850z"/>
<path d="M1148 2593 c-50 -109 -95 -256 -119 -387 -19 -100 -22 -161 -26 -627
-6 -609 -16 -559 112 -559 l75 0 0 825 c0 454 -2 825 -4 825 -2 0 -19 -35 -38
-77z"/>
<path d="M1027 923 c-4 -3 -7 -12 -7 -20 0 -11 170 -13 980 -13 973 0 980 0
980 20 0 20 -7 20 -973 20 -536 0 -977 -3 -980 -7z"/>
<path d="M1030 791 c0 -5 7 -11 15 -15 12 -4 15 -26 15 -106 0 -80 -3 -102
-15 -106 -8 -4 -15 -11 -15 -16 0 -6 29 -9 74 -6 55 2 80 8 95 22 32 29 27 70
-11 100 -24 18 -28 26 -16 26 45 0 46 83 2 100 -32 12 -144 13 -144 1z m132
-25 c24 -35 -19 -97 -57 -82 -19 7 -21 92 -2 99 17 5 50 -4 59 -17z m-1 -106
c13 -7 19 -21 19 -44 0 -40 -19 -59 -57 -54 -26 3 -28 6 -31 56 -3 50 -2 52
23 52 15 0 35 -5 46 -10z"/>
<path d="M1667 769 c-7 -19 -26 -68 -41 -109 -16 -41 -37 -83 -49 -93 -26 -23
-18 -29 34 -24 36 3 40 5 22 11 -26 9 -27 14 -13 51 9 24 14 26 57 23 41 -3
48 -6 56 -31 7 -23 6 -31 -9 -42 -17 -13 -14 -14 34 -15 57 0 61 4 33 28 -11
10 -36 62 -56 117 -20 55 -41 104 -45 109 -5 5 -15 -6 -23 -25z m37 -96 c7
-21 4 -23 -29 -23 -39 0 -39 0 -13 70 l10 25 13 -25 c7 -14 16 -35 19 -47z"/>
<path d="M2153 776 c24 -22 26 -29 23 -111 -1 -69 -5 -90 -19 -100 -27 -19
-20 -25 28 -25 25 0 45 5 45 10 0 6 -6 10 -14 10 -21 0 -26 23 -26 108 l1 77
22 -26 c12 -14 47 -60 77 -102 30 -42 58 -77 63 -77 4 0 7 51 7 114 0 106 1
115 23 129 21 15 20 16 -33 16 -55 1 -55 0 -32 -17 21 -16 23 -24 20 -95 l-3
-78 -68 95 c-64 91 -70 96 -104 96 l-36 0 26 -24z"/>
<path d="M2757 782 c19 -15 21 -28 23 -115 1 -80 -2 -98 -14 -103 -31 -12 -15
-24 29 -24 25 0 45 5 45 10 0 6 -7 10 -15 10 -12 0 -15 13 -15 55 0 30 2 55 5
55 2 0 28 -29 56 -65 42 -53 56 -65 80 -65 16 0 29 5 29 10 0 6 -6 10 -14 10
-7 0 -36 28 -64 62 l-51 62 40 48 c23 26 47 48 54 48 8 0 17 5 20 10 4 6 -12
10 -41 10 -40 0 -45 -2 -34 -15 10 -12 10 -18 -1 -32 -26 -36 -63 -73 -71 -73
-4 0 -8 21 -8 46 0 33 5 51 18 60 15 12 10 13 -38 13 -54 1 -55 0 -33 -17z"/>
<path d="M2579 463 c-2 -14 1 -47 8 -73 l6 -25 7 25 c14 44 11 80 -5 80 -8 0
-16 -3 -16 -7z"/>
<path d="M2364 441 c-47 -29 -64 -59 -64 -114 0 -86 44 -137 119 -137 129 0
165 206 44 256 -43 19 -62 18 -99 -5z m104 -26 c43 -54 35 -169 -13 -201 -34
-22 -81 -10 -100 26 -22 42 -19 128 5 168 26 42 78 46 108 7z"/>
<path d="M1038 440 c21 -9 22 -15 22 -120 0 -91 -3 -110 -15 -110 -8 0 -15 -4
-15 -10 0 -5 23 -10 50 -10 28 0 50 5 50 10 0 6 -7 10 -15 10 -12 0 -15 19
-15 110 0 93 3 110 18 119 13 8 2 10 -43 10 -46 0 -55 -2 -37 -9z"/>
<path d="M1183 439 c14 -8 17 -26 17 -116 0 -89 -3 -108 -17 -119 -16 -12 -11
-13 35 -14 28 0 52 5 52 10 0 6 -7 10 -15 10 -11 0 -15 12 -15 50 l0 50 34 0
c48 0 86 33 86 75 0 50 -28 65 -120 65 -56 -1 -71 -3 -57 -11z m119 -16 c37
-33 11 -103 -39 -103 -22 0 -23 4 -23 60 0 55 2 60 22 60 12 0 30 -7 40 -17z"/>
<path d="M1449 334 c-30 -78 -50 -118 -61 -122 -34 -9 -18 -22 27 -22 25 0 45
5 45 10 0 6 -7 10 -15 10 -15 0 -20 26 -9 54 4 12 20 16 54 16 45 0 49 -2 59
-31 14 -40 14 -39 -4 -39 -8 0 -15 -4 -15 -10 0 -5 23 -10 52 -10 51 0 51 0
32 19 -11 10 -39 68 -63 130 -24 61 -46 111 -51 111 -4 0 -27 -52 -51 -116z
m62 11 l17 -45 -39 0 -38 0 16 45 c8 25 18 45 22 45 3 0 13 -20 22 -45z"/>
<path d="M1653 438 c13 -11 17 -33 18 -116 1 -90 -1 -105 -17 -117 -17 -13
-14 -14 34 -15 28 0 52 5 52 10 0 6 -7 10 -15 10 -12 0 -15 13 -15 55 0 30 2
55 5 55 2 0 28 -29 56 -65 42 -53 56 -65 80 -65 16 0 29 5 29 10 0 6 -6 10
-13 10 -7 0 -36 29 -64 63 l-51 64 47 51 c25 28 53 53 61 55 8 3 -7 5 -35 5
-27 0 -44 -2 -37 -5 6 -2 12 -10 12 -17 0 -15 -68 -96 -81 -96 -5 0 -9 22 -9
50 0 36 5 52 18 59 13 8 4 10 -37 11 -46 0 -52 -2 -38 -12z"/>
<path d="M2063 439 c27 -16 87 -143 87 -185 0 -27 -5 -37 -20 -41 -39 -10 -19
-23 35 -23 54 0 74 13 35 23 -35 9 -26 70 20 149 22 37 48 72 58 77 13 8 5 10
-33 10 -27 -1 -42 -3 -32 -6 9 -2 17 -11 17 -19 0 -18 -42 -94 -52 -94 -7 0
-58 92 -58 104 0 2 8 7 18 9 9 3 -8 5 -38 6 -42 0 -51 -2 -37 -10z"/>
<path d="M2668 434 c20 -14 22 -23 22 -113 0 -91 -2 -100 -22 -114 -22 -15
-17 -16 80 -16 l102 -1 0 43 0 42 -20 -32 c-18 -29 -25 -33 -65 -33 l-45 0 0
110 c0 105 1 111 23 120 17 7 8 9 -38 9 -57 1 -58 0 -37 -15z"/>
<path d="M2888 438 c21 -10 22 -17 22 -120 0 -101 -1 -108 -20 -108 -11 0 -20
-4 -20 -10 0 -5 25 -10 55 -10 54 0 74 13 35 23 -18 5 -20 13 -20 104 0 100 4
116 30 126 8 3 -12 5 -45 6 -50 0 -56 -2 -37 -11z"/>
<path d="M1020 85 c0 -13 116 -15 980 -15 864 0 980 2 980 15 0 13 -116 15
-980 15 -864 0 -980 -2 -980 -15z"/>
</g>
</svg>
